# xmcd
#
# Track frame offsets:
#	150
#	15350
#	32653
#	65078
#	76413
#	88595
#	101296
#	123463
#	136861
#	148331
#	158459
#	175101
#	195755
#	208589
#	220645
#
# Disc length: 3133 seconds
#
# Revision: 1
# Processed by: cddbd v1.4PL0 Copyright (c) Steve Scherf et al.
# Submitted via: audiograbber 1.80.04
#
DISCID=bc0c3b0f
DTITLE=Various Artist - Texas Blues Radio Vol 3
DYEAR=2002
DGENRE=Blues
TTITLE0=Fuzzy Whitener - Mikayla
TTITLE1=Joanna Ramirez - Easy as 123
TTITLE2=Robin Sylar - Delivery Boy
TTITLE3=Chris Zalez - Pork Fat
TTITLE4=Beth Garner - My Baby's Gone
TTITLE5=Jeremy Fuller - Check Yourself
TTITLE6=Count Blue - Jerry's Blues
TTITLE7=Mace Maben - Sweet and Low
TTITLE8=Christian Dozzler - Honey Creek Boogie
TTITLE9=Mitchell T. and the King Bees - Hawg Jobblins
TTITLE10=The Silvertones - Cruisin'
TTITLE11=Robin Bank$ - The Whiskey Song
TTITLE12=Blind Dog Cooley - Perro Ciego Stomp
TTITLE13=K.M. Williams - Last Train Blues
TTITLE14=Pete Barbeck and 7th Son - The Stomp
EXTD=A Dallas/Fort Worth Blues compilation, supporting Community Radio KNON 89.
EXTD=3 FM\nhttp://knon.org\n
EXTT0=
EXTT1=
EXTT2=
EXTT3=
EXTT4=
EXTT5=
EXTT6=
EXTT7=
EXTT8=
EXTT9=
EXTT10=
EXTT11=
EXTT12=
EXTT13=
EXTT14=
PLAYORDER=
